<svg width="106" height="115" viewBox="0 0 106 115" fill="none" xmlns="http://www.w3.org/2000/svg">
<path d="M67.6005 46.5271H94.1202C96.3035 46.6961 102.854 47.4569 104.558 50.7532C105.836 53.2044 104.451 56.5431 101.203 59.2055C78.9965 77.5048 56.8436 95.8463 34.6374 114.145C32.7203 114.653 31.4955 114.653 30.963 114.145C29.8979 113.173 31.389 110.384 35.5427 105.693C51.5184 90.1832 67.494 74.7155 83.4697 59.2055L37.9923 46.5271H67.5473H67.6005Z" fill="url(#paint0_linear_57_39)"/>
<path d="M37.4557 67.9987H10.917C8.73214 67.8297 2.17742 67.069 0.472123 63.7726C-0.806847 61.3214 0.578704 57.9828 3.82942 55.3203C25.9982 36.9788 48.2203 18.6796 70.3892 0.380353C72.3076 -0.126784 73.5333 -0.126784 74.0662 0.380353C75.132 1.35237 73.6399 4.14163 69.4832 8.83265C53.4961 24.3426 37.509 39.8103 21.5218 55.3203L67.0319 67.9987H37.4557Z" fill="url(#paint1_linear_57_39)"/>
<defs>
<linearGradient id="paint0_linear_57_39" x1="48.2083" y1="58.9536" x2="61.9615" y2="103.343" gradientUnits="userSpaceOnUse">
<stop stop-color="#9747FF"/>
<stop offset="1" stop-color="#1C63A6"/>
</linearGradient>
<linearGradient id="paint1_linear_57_39" x1="70.7737" y1="-9.19275e-07" x2="44.1016" y2="143.579" gradientUnits="userSpaceOnUse">
<stop offset="0.165297" stop-color="#7A31D8"/>
<stop offset="0.783358" stop-color="#1A5B98"/>
</linearGradient>
</defs>
</svg>